# xmcd CD database file
#
# Track frame offsets:
#	150
#	26233
#	40072
#	57232
#	69083
#	84320
#	99300
#	112697
#	126740
#	142071
#	155989
#	182840
#	199065
#	212278
#	223241
#	236508
#	248161
#	260657
#	275657
#
# Disc length: 3861 seconds
#
# Revision: 6
# Processed by: cddbd v1.5.2PL0 Copyright (c) Steve Scherf et al.
# Submitted via: CDex 1.70beta2
#
DISCID=1d0f1313
DTITLE=Jorge e Mateus - Ao Vivo em Goiânia
DYEAR=2007
DGENRE=Sertanejo (BR)
TTITLE0=Tem Nada a Ver/Te Cuida, Coração
TTITLE1=Fogueira
TTITLE2=Amor Não é Jogo de Azar
TTITLE3=Paixão Goiânia
TTITLE4=Castigo
TTITLE5=Morena Proibida
TTITLE6=Querendo Te Amar
TTITLE7=De Tanto Te Querer
TTITLE8=Pode Chorar
TTITLE9=Tá Faltando Amor
TTITLE10=Chora, Viola/Caminhoneiro/Ladrão de Mulher/O Campeão/A Vaca Já Foi pro Brejo
TTITLE11=Me Leva
TTITLE12=Traz Ela de Volta pra Mim
TTITLE13=Espinhos na Cama/Avião das Noves
TTITLE14=Te Amo Tanto que Nem Sei
TTITLE15=Meus Desespero
TTITLE16=Goiânia Me Espera
TTITLE17=Do Brasil a Argentina (Tô Indo Te Buscar)
TTITLE18=Cavaco do Pau
EXTD=YEAR: 2007
EXTT0=
EXTT1=
EXTT2=
EXTT3=
EXTT4=
EXTT5=
EXTT6=
EXTT7=
EXTT8=
EXTT9=
EXTT10=
EXTT11=
EXTT12=
EXTT13=
EXTT14=
EXTT15=
EXTT16=
EXTT17=
EXTT18=
PLAYORDER=
